# xmcd
#
# Track frame offsets:
#	182
#	16647
#	30102
#	45395
#	64257
#	79247
#	99042
#	115532
#	124845
#	131195
#	143570
#	154060
#	165610
#	178470
#	194330
#	208032
#	226440
#	270950
#	296540
#
# Disc length: 4140
#
# Revision: 2
# Processed by: cddbd v1.5.1PL0 Copyright (c) Steve Scherf et al.
# Submitted via: EasyCDDAExtractor 4.5.0.1
# Normalized: r0:TDELIM( - )
#
DISCID=f8102a13
DTITLE=Various Artist - Shakin' On Down With The Blues
DYEAR=1997
DGENRE=Blues
TTITLE0=Little Walter - Juke
TTITLE1=Mississippi Fred McDowell - Shake' Em On Down
TTITLE2=Buddy Guy and Junior Wells - Hoodoo Man
TTITLE3=Roy Gaines - First Rule Of Cheating
TTITLE4=Troyce Key and J J Malone - Crazy Little Chicken
TTITLE5=Fenton Robinson - Somebody Loan Me A Dime
TTITLE6=Big Twist and The Mellow Fellows - Cold Women
TTITLE7=Billy Boy Arnold - Eldorado Cadillac
TTITLE8=Muddy Waters - Baby Please Don't Go
TTITLE9=Muddy Waters and Carey Bell - Trouble No More
TTITLE10=Jimmy Ricks and The Ravens - Daddy Rollin' Stone
TTITLE11=Clarence Edwards - Done Got Over It
TTITLE12=Paul Butterfield - Loaded
TTITLE13=Isaac Scott - Don't Let My Baby Ride
TTITLE14=Paul DeLay Band - Who Will Be Next
TTITLE15=Koko Taylor - Wang Dang Doodle
TTITLE16=Luther Allison - The Thrill Is Gone
TTITLE17=The Mighty Houserockers - I'll Play The Blues For You
TTITLE18=Big Twist and The Mellow Fellows - Give Up What You Want
EXTD=
EXTT0=
EXTT1=
EXTT2=
EXTT3=
EXTT4=
EXTT5=
EXTT6=
EXTT7=
EXTT8=
EXTT9=
EXTT10=
EXTT11=
EXTT12=
EXTT13=
EXTT14=
EXTT15=
EXTT16=
EXTT17=
EXTT18=
PLAYORDER=
